<svg width="290" height="287" viewBox="0 0 290 287" fill="none" xmlns="http://www.w3.org/2000/svg">
<g filter="url(#filter0_d_121_1899)">
<path d="M275.311 139.496C284.382 207.24 223.102 256.122 155.582 267.108C88.0626 278.094 25.9742 232.083 16.9039 164.339C7.83347 96.5953 55.2159 32.7723 122.735 21.7863C190.255 10.8003 266.241 71.7528 275.311 139.496Z" stroke="url(#paint0_linear_121_1899)" stroke-width="4"/>
</g>
<g filter="url(#filter1_f_121_1899)">
<path d="M272.297 154.246C272.297 222.724 207.991 267.701 139.58 267.701C71.1695 267.701 15.7115 212.189 15.7115 143.711C15.7115 75.2338 71.1695 19.7217 139.58 19.7217C207.991 19.7217 272.297 85.7689 272.297 154.246Z" stroke="url(#paint1_linear_121_1899)" stroke-width="10"/>
<path d="M272.297 154.246C272.297 222.724 207.991 267.701 139.58 267.701C71.1695 267.701 15.7115 212.189 15.7115 143.711C15.7115 75.2338 71.1695 19.7217 139.58 19.7217C207.991 19.7217 272.297 85.7689 272.297 154.246Z" stroke="url(#paint2_linear_121_1899)" stroke-width="10"/>
</g>
<defs>
<filter id="filter0_d_121_1899" x="5.79919" y="10.4888" width="280.399" height="268.249" filterUnits="userSpaceOnUse" color-interpolation-filters="sRGB">
<feFlood flood-opacity="0" result="BackgroundImageFix"/>
<feColorMatrix in="SourceAlpha" type="matrix" values="0 0 0 0 0 0 0 0 0 0 0 0 0 0 0 0 0 0 127 0" result="hardAlpha"/>
<feOffset/>
<feGaussianBlur stdDeviation="4"/>
<feColorMatrix type="matrix" values="0 0 0 0 0.0437326 0 0 0 0 0.735662 0 0 0 0 0.954167 0 0 0 1 0"/>
<feBlend mode="normal" in2="BackgroundImageFix" result="effect1_dropShadow_121_1899"/>
<feBlend mode="normal" in="SourceGraphic" in2="effect1_dropShadow_121_1899" result="shape"/>
</filter>
<filter id="filter1_f_121_1899" x="1.71155" y="5.72168" width="284.585" height="275.979" filterUnits="userSpaceOnUse" color-interpolation-filters="sRGB">
<feFlood flood-opacity="0" result="BackgroundImageFix"/>
<feBlend mode="normal" in="SourceGraphic" in2="BackgroundImageFix" result="shape"/>
<feGaussianBlur stdDeviation="4.5" result="effect1_foregroundBlur_121_1899"/>
</filter>
<linearGradient id="paint0_linear_121_1899" x1="128.557" y1="20.839" x2="168.291" y2="265.04" gradientUnits="userSpaceOnUse">
<stop stop-color="#FAB642"/>
<stop offset="1" stop-color="#FFA754"/>
</linearGradient>
<linearGradient id="paint1_linear_121_1899" x1="145.479" y1="19.7217" x2="145.479" y2="267.701" gradientUnits="userSpaceOnUse">
<stop stop-color="#1B5084"/>
<stop offset="1" stop-color="#353668"/>
</linearGradient>
<linearGradient id="paint2_linear_121_1899" x1="29.7205" y1="142.901" x2="245.45" y2="225.543" gradientUnits="userSpaceOnUse">
<stop offset="0.0104167" stop-color="#F16827"/>
<stop offset="1" stop-color="white" stop-opacity="0.15"/>
</linearGradient>
</defs>
</svg>
