<svg width="247" height="248" viewBox="0 0 247 248" fill="none" xmlns="http://www.w3.org/2000/svg">
<g filter="url(#filter0_d_111_1159)">
<path d="M189.994 34.2103C235.911 60.7199 233.087 125.219 203.96 175.668C174.834 226.117 113.999 245.523 68.0833 219.014C22.1672 192.504 8.55671 130.117 37.6835 79.6677C66.8102 29.2187 144.078 7.70061 189.994 34.2103Z" stroke="url(#paint0_linear_111_1159)" stroke-width="4"/>
</g>
<g filter="url(#filter1_f_111_1159)">
<path d="M142.962 231.362C91.749 245.084 43.9062 201.081 28.7938 144.681C13.6814 88.2809 42.9466 31.4353 94.1593 17.7128C145.372 3.99043 199.139 38.5876 214.252 94.9879C229.364 151.388 194.175 217.639 142.962 231.362Z" stroke="url(#paint1_linear_111_1159)" stroke-width="10"/>
<path d="M142.962 231.362C91.749 245.084 43.9062 201.081 28.7938 144.681C13.6814 88.2809 42.9466 31.4353 94.1593 17.7128C145.372 3.99043 199.139 38.5876 214.252 94.9879C229.364 151.388 194.175 217.639 142.962 231.362Z" stroke="url(#paint2_linear_111_1159)" stroke-width="10"/>
</g>
<defs>
<filter id="filter0_d_111_1159" x="12.3594" y="12.7977" width="222.915" height="228.087" filterUnits="userSpaceOnUse" color-interpolation-filters="sRGB">
<feFlood flood-opacity="0" result="BackgroundImageFix"/>
<feColorMatrix in="SourceAlpha" type="matrix" values="0 0 0 0 0 0 0 0 0 0 0 0 0 0 0 0 0 0 127 0" result="hardAlpha"/>
<feOffset/>
<feGaussianBlur stdDeviation="4"/>
<feColorMatrix type="matrix" values="0 0 0 0 0.0437326 0 0 0 0 0.735662 0 0 0 0 0.954167 0 0 0 1 0"/>
<feBlend mode="normal" in2="BackgroundImageFix" result="effect1_dropShadow_111_1159"/>
<feBlend mode="normal" in="SourceGraphic" in2="effect1_dropShadow_111_1159" result="shape"/>
</filter>
<filter id="filter1_f_111_1159" x="10.8257" y="0.697632" width="220.958" height="247.195" filterUnits="userSpaceOnUse" color-interpolation-filters="sRGB">
<feFlood flood-opacity="0" result="BackgroundImageFix"/>
<feBlend mode="normal" in="SourceGraphic" in2="BackgroundImageFix" result="shape"/>
<feGaussianBlur stdDeviation="4.5" result="effect1_foregroundBlur_111_1159"/>
</filter>
<linearGradient id="paint0_linear_111_1159" x1="40.1948" y1="75.3179" x2="206.472" y2="171.318" gradientUnits="userSpaceOnUse">
<stop stop-color="#C68D00"/>
<stop offset="1" stop-color="#F16827"/>
</linearGradient>
<linearGradient id="paint1_linear_111_1159" x1="215.555" y1="99.8508" x2="30.0969" y2="149.544" gradientUnits="userSpaceOnUse">
<stop stop-color="#FAB642"/>
<stop offset="1" stop-color="#FFA754"/>
</linearGradient>
<linearGradient id="paint2_linear_111_1159" x1="97.86" y1="29.0999" x2="71.1438" y2="221.773" gradientUnits="userSpaceOnUse">
<stop offset="0.0104167" stop-color="#0A05F8" stop-opacity="0.33"/>
<stop offset="1" stop-color="white" stop-opacity="0.15"/>
</linearGradient>
</defs>
</svg>
