<svg width="247" height="243" viewBox="0 0 247 243" fill="none" xmlns="http://www.w3.org/2000/svg">
<g filter="url(#filter0_d_111_1162)">
<path d="M107.461 12.3848C158.674 -1.33765 202.285 46.2663 217.362 102.535C232.439 158.803 203.145 215.542 151.933 229.265C100.72 242.987 46.9814 208.497 31.9043 152.228C16.8272 95.9596 56.2485 26.1072 107.461 12.3848Z" stroke="url(#paint0_linear_111_1162)" stroke-width="4"/>
</g>
<g filter="url(#filter1_f_111_1162)">
<path d="M18.8424 86.474C32.5648 35.2613 94.5937 15.8296 150.994 30.942C207.394 46.0544 241.991 99.8216 228.269 151.034C214.547 202.247 157.701 231.512 101.301 216.4C44.9004 201.287 5.11997 137.687 18.8424 86.474Z" stroke="url(#paint1_linear_111_1162)" stroke-width="10"/>
<path d="M18.8424 86.474C32.5648 35.2613 94.5937 15.8296 150.994 30.942C207.394 46.0544 241.991 99.8216 228.269 151.034C214.547 202.247 157.701 231.512 101.301 216.4C44.9004 201.287 5.11997 137.687 18.8424 86.474Z" stroke="url(#paint2_linear_111_1162)" stroke-width="10"/>
</g>
<defs>
<filter id="filter0_d_111_1162" x="18.6521" y="0.000854492" width="212.666" height="242.279" filterUnits="userSpaceOnUse" color-interpolation-filters="sRGB">
<feFlood flood-opacity="0" result="BackgroundImageFix"/>
<feColorMatrix in="SourceAlpha" type="matrix" values="0 0 0 0 0 0 0 0 0 0 0 0 0 0 0 0 0 0 127 0" result="hardAlpha"/>
<feOffset/>
<feGaussianBlur stdDeviation="4"/>
<feColorMatrix type="matrix" values="0 0 0 0 0.0437326 0 0 0 0 0.735662 0 0 0 0 0.954167 0 0 0 1 0"/>
<feBlend mode="normal" in2="BackgroundImageFix" result="effect1_dropShadow_111_1162"/>
<feBlend mode="normal" in="SourceGraphic" in2="effect1_dropShadow_111_1162" result="shape"/>
</filter>
<filter id="filter1_f_111_1162" x="2.11743" y="11.9543" width="243.167" height="222.414" filterUnits="userSpaceOnUse" color-interpolation-filters="sRGB">
<feFlood flood-opacity="0" result="BackgroundImageFix"/>
<feBlend mode="normal" in="SourceGraphic" in2="BackgroundImageFix" result="shape"/>
<feGaussianBlur stdDeviation="4.5" result="effect1_foregroundBlur_111_1162"/>
</filter>
<linearGradient id="paint0_linear_111_1162" x1="30.6044" y1="147.377" x2="216.062" y2="97.6833" gradientUnits="userSpaceOnUse">
<stop stop-color="#FAB642"/>
<stop offset="1" stop-color="#FFA754"/>
</linearGradient>
<linearGradient id="paint1_linear_111_1162" x1="96.4377" y1="215.097" x2="146.131" y2="29.639" gradientUnits="userSpaceOnUse">
<stop stop-color="#F16827"/>
<stop offset="1" stop-color="#FAB642"/>
</linearGradient>
<linearGradient id="paint2_linear_111_1162" x1="216.557" y1="148.546" x2="63.0554" y2="29.0722" gradientUnits="userSpaceOnUse">
<stop offset="0.0104167" stop-color="#0A05F8" stop-opacity="0.33"/>
<stop offset="1" stop-color="white" stop-opacity="0.15"/>
</linearGradient>
</defs>
</svg>
