<svg width="148" height="44" viewBox="0 0 148 44" fill="none" xmlns="http://www.w3.org/2000/svg">
<g id="Group_1339_1_">
<path id="Path_785_1_" d="M48.9226 28.7701V13.4091H54.679C58.5425 13.4091 61.68 16.8447 61.68 21.0754C61.68 25.306 58.5425 28.7701 54.679 28.7701H48.9226ZM51.9045 16.646V25.5048H54.679C56.909 25.5048 58.724 23.5172 58.724 21.0754C58.724 18.6335 56.909 16.646 54.679 16.646H51.9045ZM67.2031 13.4091V28.7701H64.2212V13.4091H67.2031ZM80.4013 26.8961H73.1928L72.389 28.7701H69.07L75.6562 13.4091H77.8602L84.4463 28.7701H81.1533L80.4013 26.8961ZM79.0011 23.6308L76.7971 18.4916L74.593 23.6308H79.0011ZM88.647 13.4091L93.3662 20.3088L98.0854 13.4091H100.393V28.7701H97.4112V19.8261L94.0663 24.7382H92.7179L89.3471 19.7977V28.7417H86.3392V13.4091H88.647ZM115.614 15.3115C118.518 18.4916 118.518 23.6592 115.614 26.8393C112.71 30.0194 107.991 30.0194 105.086 26.8393C102.182 23.6592 102.182 18.4916 105.086 15.3115C105.787 14.5449 106.59 13.9486 107.498 13.5511C110.298 12.3018 113.488 12.9832 115.614 15.3115ZM110.376 16.1917C107.913 16.1917 105.89 18.378 105.89 21.0754C105.89 23.7728 107.887 25.9875 110.35 25.9875C112.813 25.9875 114.836 23.8012 114.836 21.1038C114.836 19.7977 114.369 18.5484 113.514 17.6398C112.684 16.7028 111.543 16.1633 110.376 16.1917ZM123.315 19.7125V28.7701H120.333V13.4091H122.77L128.864 22.4383V13.4091H131.846V28.7701H129.383L123.315 19.7125ZM135.243 28.7701V13.4091H140.999C144.863 13.4091 148 16.8447 148 21.0754C148 25.306 144.863 28.7701 140.999 28.7701H135.243ZM138.199 16.646V25.5048H140.973C143.203 25.5048 145.018 23.5172 145.018 21.0754C145.018 18.6335 143.203 16.646 140.973 16.646H138.199Z" fill="white"/>
<path id="Path_786_1_" d="M5.30802 43.6481C4.47826 43.6481 3.77816 42.9099 3.77816 41.9729C3.77816 41.4618 3.9856 41.0075 4.34862 40.6668L18.6618 28.0316L0.666594 15.2545C-0.00757911 14.8002 -0.215017 13.7496 0.251718 12.983C0.303578 12.8978 0.381367 12.8126 0.433226 12.7274L11.5312 0.48979C12.1275 -0.163263 13.0869 -0.163263 13.6833 0.48979C14.2797 1.14284 14.2797 2.19341 13.6833 2.84646L3.90781 13.636L22.0846 26.5268C22.7847 27.0378 22.9921 28.06 22.5254 28.8266C22.4476 28.9686 22.3179 29.1106 22.2142 29.2242L6.26742 43.3074C6.00812 43.5345 5.67103 43.6481 5.30802 43.6481Z" fill="url(#paint0_linear_17_3538)"/>
<g id="Group_1331_1_">
<path id="Path_787_1_" d="M33.368 35.2C33.1606 35.2 32.9532 35.1433 32.7717 35.0581L20.6884 29.4645C19.9105 29.0954 19.5475 28.13 19.8846 27.2782C20.2217 26.4264 21.1033 26.0289 21.8812 26.398L33.9644 31.9916C34.7423 32.3607 35.1053 33.3261 34.7682 34.1779C34.5089 34.8025 33.9644 35.2 33.368 35.2Z" fill="url(#paint1_linear_17_3538)"/>
</g>
<g id="Group_1332_1_">
<path id="Path_788_1_" d="M5.30804 43.6658C4.55608 43.6658 3.90783 43.0695 3.80411 42.2461L0.0183729 14.1364C-0.111276 13.2278 0.459178 12.376 1.28893 12.2624C2.11868 12.1205 2.89657 12.7451 3.02622 13.6537L6.5786 39.9178L32.4565 32.5071L32.7676 17.2029C32.7936 16.2943 33.4677 15.5561 34.3234 15.5845C35.1532 15.6129 35.8273 16.3511 35.8014 17.2881L35.4643 33.87C35.4384 34.6082 34.9976 35.2613 34.3234 35.4316L5.69698 43.609C5.56734 43.6374 5.43769 43.6658 5.30804 43.6658Z" fill="url(#paint2_linear_17_3538)"/>
</g>
<g id="Group_1333_1_">
<path id="Path_789_1_" d="M34.2644 18.8891C34.2125 18.8891 34.1606 18.8891 34.1347 18.8891L20.7031 17.5262C20.2364 17.4694 19.8215 17.1855 19.5622 16.7596L11.3165 2.56275C10.8757 1.79612 11.0832 0.773952 11.7833 0.262867C12.2759 -0.0778567 12.9242 -0.0778567 13.4428 0.262867L35.12 15.8226C35.8201 16.3337 36.0276 17.3558 35.5608 18.1225C35.2756 18.6052 34.7829 18.8891 34.2644 18.8891ZM21.7403 14.2893L28.3524 14.9708L17.6693 7.30449L21.7403 14.2893Z" fill="url(#paint3_linear_17_3538)"/>
</g>
<g id="Group_1334_1_">
<path id="Path_790_1_" d="M21.2828 29.5863C20.479 29.5863 19.8048 28.8765 19.7789 27.9963L19.4159 17.4055L1.36881 15.5599C0.539054 15.4463 -0.0573296 14.6229 0.0463894 13.7143C0.150108 12.8341 0.850211 12.181 1.65403 12.2378L20.9976 14.2254C21.7496 14.3105 22.346 14.992 22.3719 15.8154L22.7868 27.8543C22.8127 28.7629 22.1645 29.5295 21.3347 29.5863H21.2828Z" fill="url(#paint4_linear_17_3538)"/>
</g>
<g id="Group_1335_1_">
<path id="Path_791_1_" d="M5.30999 43.666C5.12848 43.666 4.92104 43.6376 4.76547 43.5524C4.24687 43.3253 3.88386 42.8426 3.80607 42.2463L0.0203261 14.1366C-0.109323 13.228 0.461131 12.3762 1.29088 12.2626C2.12063 12.149 2.89853 12.7453 3.02817 13.6539L6.4509 38.8675L19.7269 27.1409L19.338 15.9254C19.2861 15.0168 19.9603 14.2502 20.79 14.2218C21.6198 14.165 22.3199 14.8748 22.3718 15.7834V15.8118L22.7866 27.8507C22.8126 28.3902 22.6051 28.8729 22.2162 29.2136L6.26939 43.2969C6.01009 43.524 5.67301 43.666 5.30999 43.666Z" fill="url(#paint5_linear_17_3538)"/>
</g>
<g id="Group_1336_1_">
<path id="Path_792_1_" d="M20.8401 17.526C20.3216 17.526 19.8289 17.242 19.5437 16.7593L12.3352 4.32293L4.16733 13.3237C3.57094 13.9768 2.61154 13.9768 2.01516 13.3237C1.41878 12.6707 1.41878 11.6201 2.01516 10.967L11.5314 0.48979C12.1278 -0.163263 13.0872 -0.163263 13.6835 0.48979C13.7613 0.574971 13.8391 0.660152 13.891 0.773727L22.1366 14.9705C22.5774 15.7372 22.37 16.7593 21.6699 17.2704C21.4106 17.4408 21.1254 17.526 20.8401 17.526Z" fill="url(#paint6_linear_17_3538)"/>
</g>
<g id="Group_1337_1_">
<path id="Path_793_1_" d="M49.3486 38.2821V39.3327H48.3892V34.4206H50.0227C50.9821 34.4206 51.786 35.2724 51.786 36.3514C51.786 37.4019 51.0081 38.2821 50.0227 38.2821H49.3486ZM49.3486 35.4712V37.2316H50.0227C50.4635 37.2316 50.8266 36.8341 50.8006 36.323C50.8006 35.8403 50.4376 35.4712 49.9968 35.4428L49.3486 35.4712ZM53.6529 38.2821V39.3327H52.6935V34.4206H54.3011C55.2605 34.4206 56.0644 35.2724 56.0644 36.3514C56.0644 36.8624 55.8829 37.3451 55.5458 37.7143C55.468 37.7994 55.3902 37.8562 55.3124 37.913L56.0384 39.3043H54.9494L54.4049 38.2537C54.353 38.2537 54.3271 38.2537 54.2752 38.2537L53.6529 38.2821ZM53.6529 35.4712V37.2316H54.3271C54.7679 37.2316 55.1568 36.8624 55.1568 36.3514C55.1568 35.8687 54.8197 35.4428 54.353 35.4428H54.3271L53.6529 35.4712ZM60.9132 35.0453C61.8467 36.0674 61.8467 37.7143 60.9132 38.708C59.9797 39.7302 58.4758 39.7302 57.5683 38.708C56.6348 37.6859 56.6348 36.039 57.5683 35.0453C58.0091 34.5626 58.6055 34.2786 59.2537 34.2786C59.876 34.2786 60.4724 34.5342 60.9132 35.0453ZM59.2537 35.3292C58.4758 35.3292 57.8276 36.039 57.8276 36.8908C57.8276 37.7427 58.4758 38.4525 59.2537 38.4525C60.0316 38.4525 60.6799 37.7427 60.6799 36.8908C60.6799 36.0106 60.0316 35.3292 59.2537 35.3292ZM65.5287 34.4206V35.4712H63.5062V36.3514H65.1398V37.4019H63.5062V39.3327H62.5468V34.4206H65.5287ZM69.2885 34.4206V35.4712H67.266V36.3514H68.8736V37.4019H67.266V38.2821H69.2885V39.3327H66.3066V34.449L69.2885 34.4206ZM70.8702 37.8278C71.0777 38.197 71.4666 38.4241 71.8556 38.4525C72.0371 38.4525 72.2186 38.4241 72.3742 38.3105C72.5038 38.2253 72.5816 38.0834 72.5816 37.913C72.5816 37.7427 72.4779 37.6007 72.3482 37.5439L71.311 37.26C70.9999 37.1748 70.7406 36.976 70.5332 36.7205C70.3516 36.4933 70.2479 36.2094 70.2479 35.8971C70.222 35.4428 70.4035 35.0169 70.7147 34.7045C71.0258 34.4206 71.4148 34.2502 71.8037 34.2502C72.4001 34.2218 72.9965 34.5058 73.3854 35.0169L72.6335 35.6983C72.426 35.4428 72.1408 35.3008 71.8296 35.3292C71.6481 35.3292 71.4666 35.3576 71.337 35.4712C71.2333 35.5563 71.1555 35.6983 71.1555 35.8403C71.1555 36.039 71.2851 36.181 71.5185 36.2946L72.5557 36.5785C73.1002 36.7489 73.4891 37.2884 73.4891 37.913C73.4891 38.3389 73.3336 38.7364 73.0483 39.0204C72.7112 39.3611 72.2704 39.5315 71.8037 39.5031C71.0777 39.5031 70.4035 39.1055 70.0405 38.4241L70.8702 37.8278ZM75.1746 37.8278C75.382 38.197 75.771 38.4241 76.1599 38.4525C76.3414 38.4525 76.5229 38.4241 76.6785 38.3105C76.8081 38.2253 76.8859 38.0834 76.8859 37.913C76.8859 37.7427 76.7822 37.6007 76.6526 37.5439L75.6154 37.26C75.3042 37.1748 75.0449 36.976 74.8375 36.7205C74.656 36.4933 74.5523 36.2094 74.5523 35.8971C74.5263 35.4428 74.7078 35.0169 75.019 34.7045C75.3302 34.4206 75.7191 34.2502 76.108 34.2502C76.7044 34.2218 77.3008 34.5058 77.6898 35.0169L76.9637 35.6983C76.7563 35.4428 76.4711 35.3008 76.1599 35.3292C75.9784 35.3292 75.7969 35.3576 75.6672 35.4712C75.5635 35.5563 75.4857 35.6983 75.4857 35.8403C75.4857 36.039 75.6154 36.181 75.8487 36.2946L76.8859 36.5785C77.4305 36.7489 77.8194 37.2884 77.8194 37.913C77.8194 38.3389 77.6638 38.7364 77.3786 39.0204C77.0415 39.3611 76.6007 39.5315 76.134 39.5031C75.4079 39.5031 74.7338 39.1055 74.3708 38.4241L75.1746 37.8278ZM79.7901 34.4206V39.3043H78.8307V34.4206H79.7901ZM84.7426 35.0453C85.6761 36.0674 85.6761 37.6859 84.7426 38.708C83.8092 39.7302 82.3312 39.7302 81.3977 38.708C80.4642 37.6859 80.4642 36.0674 81.3977 35.0453C81.8385 34.5626 82.4349 34.2786 83.0831 34.2786C83.7055 34.2786 84.3278 34.5342 84.7426 35.0453ZM83.0831 35.3292C82.3052 35.3292 81.657 36.0106 81.657 36.8908C81.657 37.7427 82.2793 38.4525 83.0831 38.4525C83.861 38.4525 84.5093 37.771 84.5093 36.8908C84.5093 36.4649 84.3537 36.0958 84.0944 35.7835C83.8092 35.4712 83.4462 35.3008 83.0831 35.3292ZM87.3097 36.4365V39.3043H86.3503V34.4206H87.1282L89.047 37.2884V34.4206H90.0064V39.3043H89.2285L87.3097 36.4365ZM94.3366 38.708H92.0548L91.7955 39.3043H90.7324L92.8327 34.4206H93.5328L95.6331 39.3043H94.5959L94.3366 38.708ZM93.8958 37.6859L93.1957 36.0674L92.4956 37.7143L93.8958 37.6859ZM96.3592 34.4206H97.3186V38.2821H99.2114V39.3327H96.3592V34.4206ZM106.031 38.708C105.097 39.7302 103.619 39.7302 102.686 38.708C101.753 37.6859 101.753 36.0674 102.686 35.0453C103.619 34.0231 105.097 34.0231 106.031 35.0453L105.357 35.7835C104.812 35.1872 103.905 35.1872 103.36 35.7835C102.816 36.3798 102.816 37.3735 103.36 37.9698C103.905 38.5661 104.812 38.5661 105.357 37.9698L106.031 38.708Z" fill="white"/>
<path id="Path_794_1_" d="M110.205 35.0453C111.138 36.0674 111.138 37.7143 110.205 38.708C109.271 39.7302 107.768 39.7302 106.86 38.708C105.927 37.6859 105.927 36.039 106.86 35.0453C107.301 34.5626 107.923 34.2786 108.545 34.2786C109.168 34.2786 109.764 34.5342 110.205 35.0453ZM108.545 35.3292C107.768 35.3292 107.119 36.039 107.119 36.8908C107.119 37.7427 107.768 38.4525 108.545 38.4525C109.323 38.4525 109.972 37.7427 109.972 36.8908C109.972 36.0106 109.323 35.3292 108.545 35.3292ZM112.772 36.4365V39.3043H111.813V34.4206H112.59L114.509 37.2884V34.4206H115.469V39.3043H114.691L112.772 36.4365ZM117.336 37.8278C117.543 38.197 117.932 38.4241 118.321 38.4525C118.502 38.4525 118.684 38.4241 118.84 38.3105C118.969 38.2253 119.047 38.0834 119.047 37.913C119.047 37.7427 118.943 37.6007 118.814 37.5439L117.776 37.26C117.465 37.1748 117.206 36.976 116.999 36.7205C116.817 36.4933 116.713 36.2094 116.713 35.8971C116.687 35.4428 116.869 35.0169 117.18 34.7045C117.491 34.4206 117.88 34.2502 118.269 34.2502C118.865 34.2218 119.462 34.5058 119.851 35.0169L119.125 35.6983C118.917 35.4428 118.632 35.3008 118.321 35.3292C118.139 35.3292 117.958 35.3576 117.828 35.4712C117.725 35.5563 117.647 35.6983 117.647 35.8403C117.647 36.039 117.776 36.181 118.01 36.2946L119.047 36.5785C119.592 36.7489 119.98 37.2884 119.98 37.913C119.98 38.3389 119.825 38.7364 119.54 39.0204C119.203 39.3611 118.762 39.5315 118.295 39.5031C117.569 39.5031 116.895 39.1055 116.532 38.4241L117.336 37.8278ZM120.862 37.4019V34.4206H121.821V37.4019C121.821 37.9698 122.236 38.4241 122.755 38.4241C123.014 38.4241 123.248 38.3105 123.429 38.1118C123.611 37.913 123.714 37.6575 123.714 37.3735V34.4206H124.674V37.4019C124.674 38.5377 123.818 39.4747 122.781 39.4747C121.744 39.4747 120.862 38.5377 120.862 37.4019ZM125.711 34.4206H126.67V38.2821H128.563V39.3327H125.711V34.4206ZM131.234 34.4206V35.4712H130.145V39.3327H129.186V35.4712H128.096V34.4206H131.234ZM134.475 38.708H132.193L131.934 39.3043H130.871L132.971 34.4206H133.671L135.772 39.3043H134.734L134.475 38.708ZM134.034 37.6859L133.334 36.039L132.634 37.6859H134.034ZM137.431 36.4365V39.3043H136.472V34.4206H137.25L139.168 37.2884V34.4206H140.128V39.3043H139.35L137.431 36.4365ZM143.914 34.4206V35.4712H142.825V39.3327H141.865V35.4712H140.776V34.4206H143.914ZM145.21 37.8278C145.418 38.197 145.806 38.4241 146.195 38.4525C146.377 38.4525 146.558 38.4241 146.714 38.3105C146.844 38.2253 146.921 38.0834 146.921 37.913C146.921 37.7427 146.818 37.6007 146.688 37.5439L145.651 37.26C145.34 37.1748 145.08 36.976 144.873 36.7205C144.691 36.4933 144.588 36.2094 144.588 35.8971C144.562 35.4428 144.743 35.0169 145.055 34.7045C145.366 34.4206 145.755 34.2502 146.169 34.2502C146.766 34.2218 147.362 34.5058 147.751 35.0169L146.999 35.6983C146.792 35.4428 146.507 35.3008 146.195 35.3292C146.014 35.3292 145.832 35.3576 145.703 35.4712C145.599 35.5563 145.521 35.6699 145.521 35.8403C145.521 36.039 145.651 36.181 145.884 36.2946L146.921 36.5785C147.466 36.7489 147.855 37.2884 147.855 37.913C147.855 38.3389 147.699 38.7364 147.414 39.0204C147.077 39.3611 146.636 39.5315 146.169 39.5031C145.443 39.5031 144.769 39.1055 144.406 38.4241L145.21 37.8278Z" fill="white"/>
</g>
</g>
<defs>
<linearGradient id="paint0_linear_17_3538" x1="19.5986" y1="57.7074" x2="-6.1095" y2="32.4216" gradientUnits="userSpaceOnUse">
<stop offset="0.281" stop-color="#FAB642"/>
<stop offset="1" stop-color="#F16827"/>
</linearGradient>
<linearGradient id="paint1_linear_17_3538" x1="33.5166" y1="53.094" x2="29.5654" y2="12.268" gradientUnits="userSpaceOnUse">
<stop offset="0.281" stop-color="#FAB642"/>
<stop offset="1" stop-color="#F16827"/>
</linearGradient>
<linearGradient id="paint2_linear_17_3538" x1="26.9222" y1="55.2739" x2="18.2302" y2="14.6246" gradientUnits="userSpaceOnUse">
<stop offset="0.281" stop-color="#FAB642"/>
<stop offset="1" stop-color="#F16827"/>
</linearGradient>
<linearGradient id="paint3_linear_17_3538" x1="35.4202" y1="52.4775" x2="28.7879" y2="11.6188" gradientUnits="userSpaceOnUse">
<stop offset="0.281" stop-color="#FAB642"/>
<stop offset="1" stop-color="#F16827"/>
</linearGradient>
<linearGradient id="paint4_linear_17_3538" x1="22.7674" y1="56.6436" x2="16.2056" y2="15.8047" gradientUnits="userSpaceOnUse">
<stop offset="0.281" stop-color="#FAB642"/>
<stop offset="1" stop-color="#F16827"/>
</linearGradient>
<linearGradient id="paint5_linear_17_3538" x1="20.907" y1="57.2606" x2="1.94563" y2="21.2611" gradientUnits="userSpaceOnUse">
<stop offset="0.281" stop-color="#FAB642"/>
<stop offset="1" stop-color="#F16827"/>
</linearGradient>
<linearGradient id="paint6_linear_17_3538" x1="23.7056" y1="56.34" x2="15.6781" y2="15.6039" gradientUnits="userSpaceOnUse">
<stop offset="0.281" stop-color="#FAB642"/>
<stop offset="1" stop-color="#F16827"/>
</linearGradient>
</defs>
</svg>
