<svg width="164" height="164" viewBox="0 0 164 164" fill="none" xmlns="http://www.w3.org/2000/svg">
<circle cx="82" cy="82" r="81.5" stroke="url(#paint0_linear_277_206)" stroke-opacity="0.15"/>
<circle cx="82" cy="82" r="48.5" stroke="url(#paint1_linear_277_206)" stroke-opacity="0.5"/>
<circle cx="82" cy="82" r="64.5" stroke="url(#paint2_linear_277_206)" stroke-opacity="0.25"/>
<g filter="url(#filter0_d_277_206)">
<circle cx="82" cy="82" r="40" fill="url(#paint3_linear_277_206)"/>
</g>
<path d="M82 89C86.42 89 90 85.42 90 81V70C90 65.58 86.42 62 82 62C77.58 62 74 65.58 74 70V81C74 85.42 77.58 89 82 89Z" stroke="white" stroke-width="3" stroke-linecap="round" stroke-linejoin="round"/>
<path d="M66.7002 77.2998V80.6998C66.7002 89.1398 73.5602 95.9998 82.0002 95.9998C90.4402 95.9998 97.3002 89.1398 97.3002 80.6998V77.2998" stroke="white" stroke-width="3" stroke-linecap="round" stroke-linejoin="round"/>
<path d="M79.2197 70.8602C81.0197 70.2002 82.9797 70.2002 84.7797 70.8602" stroke="white" stroke-width="3" stroke-linecap="round" stroke-linejoin="round"/>
<path d="M80.4004 75.1001C81.4604 74.8201 82.5604 74.8201 83.6204 75.1001" stroke="white" stroke-width="3" stroke-linecap="round" stroke-linejoin="round"/>
<path d="M82 96V102" stroke="white" stroke-width="3" stroke-linecap="round" stroke-linejoin="round"/>
<defs>
<filter id="filter0_d_277_206" x="12.0795" y="20.6282" width="139.841" height="139.841" filterUnits="userSpaceOnUse" color-interpolation-filters="sRGB">
<feFlood flood-opacity="0" result="BackgroundImageFix"/>
<feColorMatrix in="SourceAlpha" type="matrix" values="0 0 0 0 0 0 0 0 0 0 0 0 0 0 0 0 0 0 127 0" result="hardAlpha"/>
<feOffset dy="8.5487"/>
<feGaussianBlur stdDeviation="14.9602"/>
<feComposite in2="hardAlpha" operator="out"/>
<feColorMatrix type="matrix" values="0 0 0 0 0.227451 0 0 0 0 0.682353 0 0 0 0 0.972549 0 0 0 0.3 0"/>
<feBlend mode="normal" in2="BackgroundImageFix" result="effect1_dropShadow_277_206"/>
<feBlend mode="normal" in="SourceGraphic" in2="effect1_dropShadow_277_206" result="shape"/>
</filter>
<linearGradient id="paint0_linear_277_206" x1="0" y1="82" x2="164" y2="82" gradientUnits="userSpaceOnUse">
<stop stop-color="#F16827"/>
<stop offset="1" stop-color="#FFA754"/>
</linearGradient>
<linearGradient id="paint1_linear_277_206" x1="33" y1="82" x2="131" y2="82" gradientUnits="userSpaceOnUse">
<stop stop-color="#F16827"/>
<stop offset="1" stop-color="#FFA754"/>
</linearGradient>
<linearGradient id="paint2_linear_277_206" x1="17" y1="82" x2="147" y2="82" gradientUnits="userSpaceOnUse">
<stop stop-color="#F16827"/>
<stop offset="1" stop-color="#FFA754"/>
</linearGradient>
<linearGradient id="paint3_linear_277_206" x1="42" y1="82" x2="122" y2="82" gradientUnits="userSpaceOnUse">
<stop stop-color="#F16827"/>
<stop offset="1" stop-color="#FFA754"/>
</linearGradient>
</defs>
</svg>
