<svg width="248" height="46" viewBox="0 0 248 46" fill="none" xmlns="http://www.w3.org/2000/svg">
<g opacity="0.7">
<rect x="0.105469" y="20.125" width="5.75" height="5.75" rx="2.875" fill="white"/>
<rect x="17.3555" y="11.5" width="5.75" height="23" rx="2.875" fill="white"/>
<rect x="34.6055" y="2.875" width="5.75" height="40.25" rx="2.875" fill="white"/>
<rect x="51.8555" y="17.25" width="5.75" height="11.5" rx="2.875" fill="white"/>
<rect x="69.1055" width="5.75" height="46" rx="2.875" fill="white"/>
<rect x="86.3555" y="2.875" width="5.75" height="40.25" rx="2.875" fill="white"/>
<rect x="103.605" y="8.625" width="5.75" height="28.75" rx="2.875" fill="white"/>
<rect x="120.855" y="8.625" width="5.75" height="28.75" rx="2.875" fill="white"/>
<rect x="138.105" y="8.625" width="5.75" height="28.75" rx="2.875" fill="white"/>
<rect x="155.355" y="2.875" width="5.75" height="40.25" rx="2.875" fill="white"/>
<rect x="172.605" y="8.625" width="5.75" height="28.75" rx="2.875" fill="white"/>
<rect x="189.855" width="5.75" height="46" rx="2.875" fill="white"/>
<rect x="207.105" y="8.625" width="5.75" height="28.75" rx="2.875" fill="white"/>
<rect x="224.355" y="17.25" width="5.75" height="11.5" rx="2.875" fill="white"/>
<rect x="241.605" y="20.125" width="5.75" height="5.75" rx="2.875" fill="white"/>
</g>
</svg>
